# xmcd
#
# Track frame offsets:
#	150
#	14126
#	25390
#	36833
#	49327
#	64761
#	75846
#	90277
#	98941
#	110840
#	122668
#	135444
#	144806
#	155914
#	164114
#	173856
#	183465
#	201321
#	217546
#	230783
#	250701
#	261764
#	277596
#	293256
#	307007
#	320382
#
# Disc length: 4346 seconds
#
# Revision: 1
# Processed by: cddbd v1.5.2PL0 Copyright (c) Steve Scherf et al.
# Submitted via: EZCDAudioConverter 8.0.3.1
#
DISCID=6b10f81a
DTITLE=Richard Germer - Wo Die Nordseewellen...1929-1953
DYEAR=2008
DGENRE=Blues
TTITLE0=Friesenlied (Wo Die Nordseewellen...)
TTITLE1=Einmal Noch Nach Bombay
TTITLE2=Schleswig-Holstein, Meerumschlungen
TTITLE3=Jolly
TTITLE4=Meuven-Hochtied
TTITLE5=Ho-He und Hoch Die Segel (Lied Beim Setzen der Segel) [Alte Segelschif
TTITLE5=f
TTITLE6=Das Lied Vom Grog
TTITLE7=De Kock
TTITLE8=Schicksal Eines Stilisierten Negers
TTITLE9=Madame Goulou
TTITLE10=Das Bierlied
TTITLE11=Wir Trinken Noch Eins
TTITLE12=De Smitsgesell
TTITLE13=Dansmusik in 'N Heisterkrog
TTITLE14=Min Schapp
TTITLE15=Dansleed
TTITLE16=De Hochtidsspaß
TTITLE17=Burlala
TTITLE18=Die Nacht Ist Still
TTITLE19=Tanzweise
TTITLE20=Ho-He und Hoch Die Segel (Lied Beim Setzen der Segel) [Alte Segel
TTITLE21=Junge, Jetzt Komm Aber Runter Vom Baum
TTITLE22=Nur Kein Wasser
TTITLE23=Wie eine Praliné
TTITLE24=Lauter Süße Sachen
TTITLE25=Jansen Kaffee
EXTD=
EXTT0=
EXTT1=
EXTT2=
EXTT3=
EXTT4=
EXTT5=
EXTT6=
EXTT7=
EXTT8=
EXTT9=
EXTT10=
EXTT11=
EXTT12=
EXTT13=
EXTT14=
EXTT15=
EXTT16=
EXTT17=
EXTT18=
EXTT19=
EXTT20=
EXTT21=
EXTT22=
EXTT23=
EXTT24=
EXTT25=
PLAYORDER=
